<svg xmlns="http://www.w3.org/2000/svg" width="98.91" height="98.841" viewBox="0 0 98.91 98.841">
  <path id="الا_حياء" data-name="الأحياء" d="M132.773,59.484a1.619,1.619,0,0,0-1.43,1.776,20.347,20.347,0,0,1-1.228,8.13L98.844,41.1a20.762,20.762,0,0,1,10.23-2.122,1.608,1.608,0,1,0,.357-3.194,23.61,23.61,0,0,0-18.338,6.991c-7.9,8.03-10.777,21.867-8.566,41.154-7-1.128-25.91-3.228-37.558,5.707-5.819,4.467-8.934,11.034-9.27,19.511a1.608,1.608,0,0,0,1.541,1.675h.067a1.6,1.6,0,0,0,1.6-1.541,27.675,27.675,0,0,1,1.206-7.2l30.009,27.4a26.5,26.5,0,0,1-9.124,1.9,1.608,1.608,0,0,0,.067,3.205h.067c8.521-.268,15.11-3.44,19.578-9.2,8.934-11.6,6.857-30.511,5.707-37.5,16.272,1.865,28.657.112,36.955-5.227l.112-.078a26.067,26.067,0,0,0,4.088-3.261,23.609,23.609,0,0,0,6.991-18.338,1.608,1.608,0,0,0-1.787-1.485Zm-22.1,24.692L85.755,61.84a39.356,39.356,0,0,1,2.312-8.51L119.8,80.993A34.374,34.374,0,0,1,110.671,84.176ZM83.03,87.314a76.176,76.176,0,0,1,1.027,17.579L63.955,86.41A75.373,75.373,0,0,1,83.03,87.314ZM81.1,118.272,49.884,90.352A32.98,32.98,0,0,1,59.779,87l23.866,21.889A37.078,37.078,0,0,1,81.1,118.272Zm-2.971,5.1a19.231,19.231,0,0,1-4.936,4.534L41.441,98.873a18.986,18.986,0,0,1,5.528-6.7l.123-.089,32.5,29.149A21.352,21.352,0,0,1,78.128,123.376Zm7.695-38.854a89.084,89.084,0,0,1-.547-18.762l21.331,19.1a85.213,85.213,0,0,1-20.784-.335Zm39.423-7.516A22.209,22.209,0,0,1,122.6,79.24L89.486,50.348A23.688,23.688,0,0,1,93.339,45.1a19.239,19.239,0,0,1,2.613-2.234L128.73,72.483a20.014,20.014,0,0,1-3.484,4.523Z" transform="translate(-35.699 -35.736)" fill="#f669a9" opacity="0.3"/>
</svg>
