<svg xmlns="http://www.w3.org/2000/svg" width="65.026" height="79.016" viewBox="0 0 65.026 79.016">
  <g id="ا_لعاب_بليغ" data-name="ألعاب بليغ" transform="translate(0.501 0.55)">
    <path id="Path_814" data-name="Path 814" d="M97.9,80.48a7.915,7.915,0,0,0,.33-3.946,9.078,9.078,0,0,0-1.2-3.241A6.79,6.79,0,0,0,98.921,69.8a9.483,9.483,0,0,0-3-9.146,10.571,10.571,0,0,0-8.576-2.739,6.932,6.932,0,0,0-1.891-6,10.234,10.234,0,0,0-6.265-3.129,9.3,9.3,0,0,0-5.845.938,6,6,0,0,0-3.061,5.124V69.6H68.377V55.391a.308.308,0,0,0,0-.083h0a6.865,6.865,0,0,0-2.5-5c-2.393-1.681-6-2.108-9.589-1.133-2.731.75-5.4,3-7.338,6.152a11.127,11.127,0,0,0-1.5,5.252,1.252,1.252,0,0,0,0,.293v.278a11.719,11.719,0,0,0-5.77,1.688,10.436,10.436,0,0,0-4.374,8.823,10.6,10.6,0,0,0,3.459,7.683,7.915,7.915,0,0,0-.33,3.946,9.078,9.078,0,0,0,1.2,3.241,6.79,6.79,0,0,0-1.891,3.489,9.484,9.484,0,0,0,3,9.146,10.571,10.571,0,0,0,8.583,2.761,6.933,6.933,0,0,0,1.891,6,10.234,10.234,0,0,0,6.265,3.129,12.6,12.6,0,0,0,1.6.128,8.455,8.455,0,0,0,4.247-1.058,5.927,5.927,0,0,0,3.061-5.109v-14.8h1.921v14.293a6.865,6.865,0,0,0,2.5,5,10.039,10.039,0,0,0,5.777,1.681,14.3,14.3,0,0,0,3.751-.518c2.731-.75,5.4-3,7.338-6.145a10.856,10.856,0,0,0,1.5-5.822,11.644,11.644,0,0,0,5.77-1.681,10.436,10.436,0,0,0,4.374-8.823A10.6,10.6,0,0,0,97.9,80.48ZM67.042,87.532h0a1.313,1.313,0,0,0-.945.39,1.343,1.343,0,0,0-.4.953v15.988a1.432,1.432,0,0,0,0,.18,3.249,3.249,0,0,1-1.718,2.731,6.6,6.6,0,0,1-4.134.608,7.548,7.548,0,0,1-4.629-2.251,4.322,4.322,0,0,1-.833-5.079,1.248,1.248,0,0,0,.045-.158,6.348,6.348,0,0,0,2.153-1.906,1.353,1.353,0,1,0-2.251-1.5,5.169,5.169,0,0,1-3,1.726h0A7.818,7.818,0,0,1,44.578,97.2,6.835,6.835,0,0,1,42.328,90.6a4.179,4.179,0,0,1,1.148-2.138,5.747,5.747,0,0,0,5.4.443,1.352,1.352,0,0,0-1.088-2.476,3.106,3.106,0,0,1-3.091-.465h0a2.917,2.917,0,0,1-.233-.2.344.344,0,0,0-.053-.053,5.657,5.657,0,0,1-1.335-2.866,4.982,4.982,0,0,1,.4-3,1.11,1.11,0,0,0,.1-.263,3.864,3.864,0,0,1,2.108-1.771,3,3,0,0,1,2.791.48,1.345,1.345,0,1,0,1.718-2.071,5.77,5.77,0,0,0-5.327-.975,6.318,6.318,0,0,0-2.7,1.741,7.953,7.953,0,0,1-2.176-5.357,7.773,7.773,0,0,1,3.219-6.565,8.411,8.411,0,0,1,5.334-1.148,8.2,8.2,0,0,0,.908,1.208,7.825,7.825,0,0,0,4.824,2.633h.1a1.344,1.344,0,0,0,.1-2.686,5.2,5.2,0,0,1-3-1.763,4.975,4.975,0,0,1-1.313-2.731,8.591,8.591,0,0,1,1.125-3.871c1.583-2.588,3.676-4.4,5.747-4.959,2.851-.75,5.6-.5,7.345.75a4.314,4.314,0,0,1,1.358,2.656V69.646a4.607,4.607,0,0,0,0,9.108,1.236,1.236,0,0,0,0,.165v3.436A1.343,1.343,0,0,0,67.072,83.7h5.252a1.921,1.921,0,0,1,1.358,3.279,1.9,1.9,0,0,1-1.358.563H67.072Zm3.264-6.52H68.377v-2.2h1.928v2.093A.491.491,0,0,0,70.305,81.012ZM95.447,94.78c-1.305.908-4.2,1.5-5.439,1.08a1.215,1.215,0,0,0-.428-.068,9.326,9.326,0,0,0-2.746-1.7,1.344,1.344,0,1,0-.99,2.5,5.335,5.335,0,0,1,2.679,2.123,8.036,8.036,0,0,1-1.1,4.374c-1.583,2.588-3.676,4.4-5.747,4.959-2.851.75-5.6.5-7.345-.75a4.314,4.314,0,0,1-1.358-2.648V90.181a4.6,4.6,0,0,0-.015-9.108,1.233,1.233,0,0,0,0-.165V77.464a1.343,1.343,0,0,0-1.343-1.343H66.367a1.921,1.921,0,0,1-1.358-3.279,1.9,1.9,0,0,1,1.358-.563h5.252a1.5,1.5,0,0,0,.945-.39,1.343,1.343,0,0,0,.4-.953V54.955a1.435,1.435,0,0,0,0-.18,3.249,3.249,0,0,1,1.718-2.731,6.6,6.6,0,0,1,4.134-.608,7.548,7.548,0,0,1,4.629,2.251,4.247,4.247,0,0,1,1.043,4.5,8.809,8.809,0,0,0-2.656,1.35,6.242,6.242,0,0,0-3.489-1.726,1.343,1.343,0,0,0-.353,2.663,3.624,3.624,0,0,1,2.438,1.546,1.283,1.283,0,0,0,.278.465,3,3,0,0,1,.188.488l.068.278a3.5,3.5,0,0,1-5,3.811,1.344,1.344,0,0,0-1.208,2.4,6.179,6.179,0,0,0,8.846-6.707c-.038-.18-.075-.353-.128-.525s-.105-.293-.158-.435a6,6,0,0,1,2.536-1.185,1.118,1.118,0,0,0,.443-.188,1.321,1.321,0,0,0,1,.2,7.833,7.833,0,0,1,6.752,2.018,6.835,6.835,0,0,1,2.251,6.595,4.127,4.127,0,0,1-1.148,2.131,5.762,5.762,0,0,0-5.4-.435,1.343,1.343,0,1,0,1.14,2.431,3.106,3.106,0,0,1,3.091.465h0l.225.2a.142.142,0,0,0,.053.045,5.71,5.71,0,0,1,1.351,2.9,4.982,4.982,0,0,1-.4,3,1.11,1.11,0,0,0-.1.263A3.819,3.819,0,0,1,92.994,82a3,3,0,0,1-2.791-.48,1.345,1.345,0,0,0-1.718,2.071,5.74,5.74,0,0,0,5.327.968,6.235,6.235,0,0,0,2.7-1.733,7.953,7.953,0,0,1,2.176,5.357,7.758,7.758,0,0,1-3.241,6.595Z" transform="translate(-37.303 -33.225)" fill="#353535" stroke="#707070" stroke-width="1"/>
    <path id="Path_815" data-name="Path 815" d="M98.984,97.231l-.338-.248a4.862,4.862,0,0,0-5.252,0,1.343,1.343,0,1,0,1.463,2.251,2.168,2.168,0,0,1,2.288,0l.143.1a2.2,2.2,0,0,1,.75,2.011,2.176,2.176,0,0,1-1.568,1.681,1.343,1.343,0,0,0,.315,2.648,1.5,1.5,0,0,0,.315,0,4.787,4.787,0,0,0,1.853-8.4Z" transform="translate(-51.149 -45.1)" fill="#353535" stroke="#707070" stroke-width="1"/>
    <path id="Path_816" data-name="Path 816" d="M63.751,71.65a6.355,6.355,0,0,0,6.753.4,1.346,1.346,0,1,0-1.343-2.333,3.639,3.639,0,0,1-3.819-.225,2.625,2.625,0,0,1-.225-.18,3.5,3.5,0,0,1,1.666-6.062,1.343,1.343,0,0,0-.473-2.641,6.182,6.182,0,0,0-3,10.706A4.921,4.921,0,0,1,63.751,71.65Z" transform="translate(-43.278 -36.205)" fill="#353535" stroke="#707070" stroke-width="1"/>
    <path id="Path_817" data-name="Path 817" d="M67.778,96.789a4.787,4.787,0,0,0-7.668,3.9v.413a4.839,4.839,0,0,0,3.3,4.066,1.321,1.321,0,0,0,.413.068,1.343,1.343,0,0,0,.405-2.626,2.176,2.176,0,0,1-1.448-1.786,1.275,1.275,0,0,1,0-.165,2.2,2.2,0,0,1,1.065-1.876,2.176,2.176,0,0,1,2.251.15,1.345,1.345,0,1,0,1.621-2.146Z" transform="translate(-42.998 -45.003)" fill="#353535" stroke="#707070" stroke-width="1"/>
    <path id="Path_818" data-name="Path 818" d="M51.283,43.22,55.3,45.846a1.853,1.853,0,0,0,.99.3h.09a1.816,1.816,0,0,0,.908-3.331l-4.014-2.626a1.816,1.816,0,0,0-1.988,3Z" transform="translate(-40.639 -31.063)" fill="#353535" stroke="#707070" stroke-width="1"/>
    <path id="Path_819" data-name="Path 819" d="M68.07,35.007a1.808,1.808,0,0,0,1.718,1.268h0a1.921,1.921,0,0,0,.57-.09,1.808,1.808,0,0,0,1.148-2.3l-1.5-4.584a1.816,1.816,0,0,0-3.346-.2,1.786,1.786,0,0,0-.083,1.373Z" transform="translate(-44.589 -28.088)" fill="#353535" stroke="#707070" stroke-width="1"/>
    <path id="Path_820" data-name="Path 820" d="M85.2,36.162a2.086,2.086,0,0,0,.563.083h0a1.808,1.808,0,0,0,1.726-1.238l1.5-4.592a1.8,1.8,0,0,0-3.436-1.088l-1.5,4.554A1.823,1.823,0,0,0,85.2,36.162Z" transform="translate(-48.956 -28.087)" fill="#353535" stroke="#707070" stroke-width="1"/>
    <path id="Path_821" data-name="Path 821" d="M98.486,46.156h0a1.868,1.868,0,0,0,.99-.3l4.014-2.626a1.816,1.816,0,0,0-1.988-3l-4.014,2.633a1.8,1.8,0,0,0-.818,1.5A1.823,1.823,0,0,0,98.486,46.156Z" transform="translate(-52.129 -31.073)" fill="#353535" stroke="#707070" stroke-width="1"/>
  </g>
</svg>
