<svg xmlns="http://www.w3.org/2000/svg" width="34.047" height="29.71" viewBox="0 0 34.047 29.71">
  <g id="new_icons_challenge_focused" transform="translate(-0.8 -0.7)">
    <path id="Path_581" data-name="Path 581" d="M11.987,429.3a8.327,8.327,0,0,0-2.321.356,11.158,11.158,0,0,0-1.212.43c-.193.077-.386.163-.593.266-.246.117-.5.243-.743.38-.17.093-.333.187-.5.286l-.286.177A15.678,15.678,0,0,0,4.8,432.311l-.193.16c-.3.25-.579.51-.839.769-.073.07-.147.143-.213.216A9.578,9.578,0,0,0,.91,437.912a4.82,4.82,0,0,0-.11.979c0,.06,0,.12,0,.17v.06a5.085,5.085,0,0,0,.177,1.162c.463,1.662,1.848,2.944,4,3.7.1.037.2.07.31.1a13.775,13.775,0,0,0,2.914.573c.047.007.093.01.143.013q.215.02.43.03c.25.017.5.027.746.027.107,0,.21,0,.316,0h.083a21.192,21.192,0,0,0,4.4-.476c.426-.093.839-.206,1.229-.33A9.9,9.9,0,0,0,17.655,443q.145-.09.28-.18A4.853,4.853,0,0,1,16,440.393a4.939,4.939,0,0,1-.25-1.156l0-.06c-.007-.053-.01-.113-.013-.173a4.9,4.9,0,0,1,.05-.989,9.6,9.6,0,0,1,2.331-4.583,7.257,7.257,0,0,0-4.4-3.873,5.577,5.577,0,0,0-1.728-.26" transform="translate(0 -414.326)" fill="#7ad1be"/>
    <path id="Path_582" data-name="Path 582" d="M524.029,410.4a8.079,8.079,0,0,0-2.711.513,11.683,11.683,0,0,0-1.189.506c-.187.09-.376.19-.58.3-.24.13-.483.276-.723.43-.163.1-.323.21-.483.32l-.276.2a15.085,15.085,0,0,0-1.472,1.216c-.06.053-.117.107-.183.17-.28.27-.549.546-.793.823q-.1.115-.2.23a.337.337,0,0,0-.043.053,13.6,13.6,0,0,1,.969,2.581c.05.177.1.353.14.536.17.683.323,1.439.48,2.385l.043.26a3.287,3.287,0,0,1-.1,1.545,4.054,4.054,0,0,1-1.705,2.085,8.116,8.116,0,0,0,2.311,1.039c.107.03.21.06.316.083a13.709,13.709,0,0,0,2.961.393c.047,0,.1,0,.143,0,.1,0,.2,0,.293,0h.18c.24,0,.476-.007.706-.02.133,0,.27-.013.4-.02a20.918,20.918,0,0,0,4.383-.753c.423-.123.829-.26,1.212-.41a9.742,9.742,0,0,0,2.058-1.062,4.274,4.274,0,0,0,1.852-2.395,3.285,3.285,0,0,0,.007-1.559l-.06-.26c-.22-.936-.42-1.688-.633-2.361-.057-.18-.113-.356-.173-.53-1.192-3.49-3.034-5.442-5.792-6.145a5.4,5.4,0,0,0-1.339-.16" transform="translate(-497.269 -396.055)" fill="#7ad1be"/>
    <path id="Path_583" data-name="Path 583" d="M451.3,553.3a9.587,9.587,0,0,0-2.331,4.583,4.9,4.9,0,0,0-.05.989c0,.06.007.12.013.173l0,.06a4.938,4.938,0,0,0,.25,1.156,4.853,4.853,0,0,0,1.935,2.431,4.054,4.054,0,0,0,1.705-2.085,3.288,3.288,0,0,0,.1-1.545l-.043-.26c-.16-.943-.313-1.7-.48-2.385-.043-.183-.09-.36-.14-.536a13.6,13.6,0,0,0-.966-2.581" transform="translate(-433.189 -534.196)" fill="#3aab8e"/>
    <path id="Path_584" data-name="Path 584" d="M145.9.7a4.8,4.8,0,1,0,4.8,4.8A4.8,4.8,0,0,0,145.9.7" transform="translate(-135.628 0)" fill="#7ad1be"/>
    <path id="Path_585" data-name="Path 585" d="M596.9.7a4.8,4.8,0,1,0,4.8,4.8A4.8,4.8,0,0,0,596.9.7" transform="translate(-571.608 0)" fill="#7ad1be"/>
  </g>
</svg>
