<svg xmlns="http://www.w3.org/2000/svg" width="116.625" height="66.155" viewBox="0 0 116.625 66.155">
  <g id="Group_453" data-name="Group 453" transform="translate(-199 -29.617)">
    <path id="Union_5" data-name="Union 5" d="M0,33.077C0,14.81,15.266,0,34.1,0A34.428,34.428,0,0,1,60.822,12.532H96.045a20.579,20.579,0,0,1,0,41.159H60.767A34.431,34.431,0,0,1,34.1,66.155C15.266,66.155,0,51.345,0,33.077Z" transform="translate(199 29.617)" fill="#dbe6ff" opacity="0.454"/>
    <g id="coins" transform="translate(210.061 40.947)">
      <g id="Group_445" data-name="Group 445" transform="translate(0 5.746)">
        <path id="Path_544" data-name="Path 544" d="M171.3,114.807v5h-.143c0,1.762-4.715,3.143-10.334,3.143a24.441,24.441,0,0,1-6.429-.714v.143a10.394,10.394,0,0,0-3.524-2v-.1L150.727,115c.381,1.619,4.762,2.905,10.144,2.905s10.287-1.381,10.287-3.1Z" transform="translate(-136.988 -111.712)" fill="#f4b844"/>
        <path id="Path_545" data-name="Path 545" d="M161.437,80.849c5.667,0,10.382,1.429,10.382,3.143s-4.762,3.1-10.382,3.1-9.811-1.286-10.191-2.905v-.19C151.2,82.278,155.77,80.849,161.437,80.849Z" transform="translate(-137.458 -80.849)" fill="#fedb41"/>
        <path id="Path_546" data-name="Path 546" d="M199.334,314.53v4h-.952a25.058,25.058,0,0,1-6.239-.667L192,317.72a10.319,10.319,0,0,0,2.857-4.381h.238c1,.1,2.1.143,3.191.143h1Z" transform="translate(-174.498 -292.145)" fill="#e1a53b"/>
        <path id="Path_547" data-name="Path 547" d="M225.969,256.488l.476.238a.6.6,0,0,0-.048.286,1.388,1.388,0,0,0,.1.429v4.477h-.524c-1.191,0-2.381-.048-3.429-.143H222.3a10.671,10.671,0,0,0,.476-3.238,16.279,16.279,0,0,0-.191-2.143h.238C223.874,256.488,224.921,256.488,225.969,256.488Z" transform="translate(-202.038 -240.391)" fill="#f4b844"/>
        <g id="Group_410" data-name="Group 410" transform="translate(17.359 8.097)">
          <path id="Path_548" data-name="Path 548" d="M190.48,172.094a24.443,24.443,0,0,0,6.429.714c5.62,0,10.334-1.381,10.334-3.143h.143v5.62c-5.239,0-9.525,1.238-10.049,2.81l-.429-.238c-1,0-1.953-.048-2.953-.143h-.238a10.179,10.179,0,0,0-3.286-5.524Z" transform="translate(-190.432 -169.665)" fill="#e2a63b"/>
          <path id="Path_549" data-name="Path 549" d="M288.612,320.653V325.7c0,1.715-4.62,3.143-10.239,3.143s-10.1-1.381-10.1-3.1v-4.572c.762,1.476,4.905,2.619,9.906,2.619s10.287-1.429,10.287-3.143Z" transform="translate(-261.181 -306.89)" fill="#e0a53b"/>
        </g>
        <path id="Path_550" data-name="Path 550" d="M287.664,266.318v4.953h-.143c0,1.714-4.667,3.143-10.287,3.143s-9.144-1.143-10-2.619V266.6c.619,1.572,4.905,2.762,10.049,2.762s10.144-1.381,10.287-3.048Z" transform="translate(-242.874 -249.411)" fill="#f4b844"/>
        <g id="Group_411" data-name="Group 411" transform="translate(0 7.918)">
          <path id="Path_551" data-name="Path 551" d="M264.715,234.315a1.122,1.122,0,0,1-.1-.381.6.6,0,0,1,.048-.286c.524-1.572,4.858-2.857,10.144-2.857h.048c5.667,0,10.429,1.381,10.429,3.143v.1c-.143,1.667-4.858,3.1-10.429,3.1S265.334,235.887,264.715,234.315Z" transform="translate(-240.499 -225.041)" fill="#fedb41"/>
          <path id="Path_552" data-name="Path 552" d="M20.883,175.933a14.883,14.883,0,0,1,.191,2.048,10.714,10.714,0,0,1-.429,3.048,10.443,10.443,0,0,1-2.905,4.477,10.038,10.038,0,0,1-6.81,2.667,10.239,10.239,0,1,1-1.381-20.43,7.163,7.163,0,0,1,1.429,0,10.626,10.626,0,0,1,3,.429,10.488,10.488,0,0,1,3.619,2.048A11.2,11.2,0,0,1,20.883,175.933Z" transform="translate(0 -167.707)" fill="#fedb41"/>
        </g>
        <circle id="Ellipse_41" data-name="Ellipse 41" cx="5.096" cy="5.096" r="5.096" transform="translate(5.406 13.096)" fill="#f4b844"/>
      </g>
      <text id="_125" data-name="125" transform="translate(74.939 28.67)" fill="#5b87eb" font-size="21" font-family="SegoeUI, Segoe UI"><tspan x="-16.98" y="0">125</tspan></text>
    </g>
  </g>
</svg>
