<svg xmlns="http://www.w3.org/2000/svg" width="146.148" height="148.604" viewBox="0 0 146.148 148.604">
  <g id="حذف_إجابة" data-name="حذف إجابة" transform="translate(-0.001)">
    <ellipse id="Ellipse_38" data-name="Ellipse 38" cx="40" cy="40.5" rx="40" ry="40.5" transform="translate(33.001)" fill="#ffe062"/>
    <path id="Icon_material-remove-circle-outline" data-name="Icon material-remove-circle-outline" d="M13.342,21.615v4.137H34.025V21.615ZM23.683,3A20.683,20.683,0,1,0,41.588,34.038a20.248,20.248,0,0,0,2.778-10.355A20.691,20.691,0,0,0,23.683,3Zm0,37.229A16.546,16.546,0,1,1,40.23,23.683,16.568,16.568,0,0,1,23.683,40.229Z" transform="translate(48.983 17.055)" fill="#193051"/>
    <g id="tooltip" transform="translate(0 88.368)" opacity="0">
      <g id="Union_2" data-name="Union 2" fill="#fff">
        <path d="M 145.6492004394531 59.73610687255859 L 0.50090491771698 59.73610687255859 L 0.50090491771698 11.61050701141357 L 65.76492309570313 11.61050701141357 L 66.04917907714844 11.61050701141357 L 66.194580078125 11.36625194549561 L 72.64565277099609 0.5284523367881775 C 72.77679443359375 0.3084523677825928 72.9898681640625 0.2846705317497253 73.07539367675781 0.2846705317497253 C 73.16081237792969 0.2846705317497253 73.37359619140625 0.3084159791469574 73.50435638427734 0.528288722038269 L 79.95552062988281 11.36625194549561 L 80.10092163085938 11.61050701141357 L 80.38517761230469 11.61050701141357 L 145.6492004394531 11.61050701141357 L 145.6492004394531 59.73610687255859 Z" stroke="none"/>
        <path d="M 145.1492156982422 59.23611068725586 L 145.1492156982422 12.11049270629883 L 80.38519287109375 12.11049270629883 L 79.81668853759766 12.11049270629883 L 79.52589416503906 11.62197208404541 L 73.07511901855469 0.7851333022117615 L 73.07473754882813 0.7851352095603943 L 66.62422943115234 11.62197208404541 L 66.33342742919922 12.11049270629883 L 65.76493072509766 12.11049270629883 L 1.000910401344299 12.11049270629883 L 1.000910401344299 59.23611068725586 L 145.1492156982422 59.23611068725586 M 146.1492156982422 60.23611068725586 L 0.0009103540214709938 60.23611068725586 L 0.0009103540214709938 11.11049270629883 L 65.76493072509766 11.11049270629883 L 72.21601104736328 0.2726923525333405 C 72.40995788574219 -0.05265764892101288 72.74273681640625 -0.2153326421976089 73.07540130615234 -0.2153326421976089 C 73.40805816650391 -0.2153326421976089 73.74060821533203 -0.05265764892101288 73.93411254882813 0.2726923525333405 L 80.38519287109375 11.11049270629883 L 146.1492156982422 11.11049270629883 L 146.1492156982422 60.23611068725586 Z" stroke="none" fill="#d8d8d8"/>
      </g>
      <text id="حذف_إجابة-2" data-name="حذف إجابة" transform="translate(120.001 39.632)" fill="#b2b2b2" font-size="24" font-family="SegoeUI, Segoe UI"><tspan x="-102.762" y="0">حذف إجابة</tspan></text>
    </g>
  </g>
</svg>
