<svg xmlns="http://www.w3.org/2000/svg" width="97.807" height="98.841" viewBox="0 0 97.807 98.841">
  <g id="قسم_مراجعة_المواد" data-name="قسم مراجعة المواد" opacity="0.3">
    <path id="Path_808" data-name="Path 808" d="M93.181,107.112A1.584,1.584,0,0,0,91.3,108.3C88.866,119.052,85,126,81.47,126c-2.742,0-5.768-4.239-8.106-11.328-2.567-7.811-4.173-18.484-4.534-30.052a1.573,1.573,0,0,0-1.562-1.529h0a1.584,1.584,0,0,0-1.518,1.628c.273,11.853,1.966,22.842,4.643,30.926,2.906,8.838,6.74,13.5,11.088,13.5,5.375,0,9.963-7.155,12.9-20.155a1.573,1.573,0,0,0-1.2-1.879Z" transform="translate(-32.418 -30.305)" fill="#f669a9"/>
    <path id="Path_809" data-name="Path 809" d="M96.549,91.821H92.5c.109-.59.208-1.158.306-1.7,1.573-8.739,2.185-11.547,5.189-13.109a10.826,10.826,0,0,1,4.949-1.092,1.573,1.573,0,0,0,0-3.135h0a13.777,13.777,0,0,0-6.38,1.431c-4.49,2.338-5.222,6.412-6.828,15.294-.131.721-.262,1.475-.4,2.261H83.7a1.573,1.573,0,1,0,0,3.146h5.014c-1.824,9.788-3.048,12.355-5.91,13.961a12.553,12.553,0,0,1-5.069,1.453,1.573,1.573,0,0,0,.142,3.135h.131a15.588,15.588,0,0,0,6.336-1.835c4.37-2.447,5.67-6.62,7.57-16.648h4.632a1.573,1.573,0,1,0,0-3.146Z" transform="translate(-31.439 -31.258)" fill="#f669a9"/>
    <path id="Path_810" data-name="Path 810" d="M115.675,85.714a1.584,1.584,0,0,0-2.185.361l-2.851,4-2.862-4.02a1.573,1.573,0,0,0-2.556,1.824l3.474,4.883-3.474,4.872a1.573,1.573,0,0,0,2.556,1.824l2.851-4,2.851,4a1.566,1.566,0,1,0,2.545-1.824L112.55,92.76l3.474-4.883A1.562,1.562,0,0,0,115.675,85.714Z" transform="translate(-28.792 -30.089)" fill="#f669a9"/>
    <path id="Path_811" data-name="Path 811" d="M116.917,79.822a1.584,1.584,0,0,0,0,2.185,15.534,15.534,0,0,1,4.129,10.924A15.829,15.829,0,0,1,117.3,103.44a1.562,1.562,0,0,0,.109,2.185,1.617,1.617,0,0,0,1.092.4,1.54,1.54,0,0,0,1.169-.524A18.964,18.964,0,0,0,124.225,92.9a18.692,18.692,0,0,0-5.036-13.109,1.573,1.573,0,0,0-2.272.033Z" transform="translate(-27.73 -30.653)" fill="#f669a9"/>
    <path id="Path_812" data-name="Path 812" d="M111.666,85.436l.12-.066c8.739-6.828,14.824-12.366,18.1-16.485,1.092-1.409,4.534-5.7,2.556-8.859-2.108-3.365-9.428-3.616-21.739-.743A166.048,166.048,0,0,0,76.621,71.65c-1.606.787-3.277,1.639-4.872,2.534,1.092-22.788,7.1-36.29,12.53-36.29,2.36,0,5.637,3.277,8.39,12.213a4.839,4.839,0,1,0,3-.885C92.767,39.861,88.79,34.77,84.279,34.77c-8.6,0-14.879,16.528-15.753,41.239-3.55,2.043-7.1,4.26-10.487,6.554-15-9.832-21.116-17.85-19.379-20.668,1.311-2.1,7.975-3.1,22.5,1.005a1.573,1.573,0,0,0,.852-3.026C52,57.044,39.359,54.816,35.994,60.245c-4.293,6.98,10.717,18.473,19.27,24.23-9.974,7.09-17.981,14.627-19.5,19.816a4.883,4.883,0,0,0,.339,4.02c.874,1.442,2.709,2.829,8.171,2.829a73.129,73.129,0,0,0,13.273-1.584,4.85,4.85,0,1,0-.787-3.048c-14.966,2.84-17.479.9-17.97.175a1.912,1.912,0,0,1,0-1.518c1.726-5.91,15.731-17.479,31.374-26.5a1.54,1.54,0,0,0,1.213-.677c2.185-1.245,4.37-2.425,6.653-3.528a163.021,163.021,0,0,1,33.417-12.126c12.956-3.026,17.675-1.748,18.363-.645.4.634,1.3,4.621-19.926,21.193a1.508,1.508,0,0,0-.492.655,2.3,2.3,0,0,0-.251.208A18.571,18.571,0,0,0,103.9,97.07a18.975,18.975,0,0,0,4.588,12.65,1.543,1.543,0,1,0,2.283-2.076A15.829,15.829,0,0,1,107,97.1a15.414,15.414,0,0,1,4.293-11.077A1.574,1.574,0,0,0,111.666,85.436Z" transform="translate(-35.238 -34.77)" fill="#f669a9"/>
  </g>
</svg>
