<svg xmlns="http://www.w3.org/2000/svg" width="123.189" height="108.864" viewBox="0 0 123.189 108.864">
  <path id="Union_6" data-name="Union 6" d="M2.249,108.864A2.253,2.253,0,0,1,0,106.606V73.531a2.236,2.236,0,0,1,.655-1.584,2.268,2.268,0,0,1,1.59-.66h102.2a18.789,18.789,0,0,1,.01,37.577Zm82.464-14.03v9.518h19.731a14.292,14.292,0,0,0,0-28.583H4.486v28.583H13V94.835a2.251,2.251,0,1,1,4.5,0v9.518H30.943V94.835a2.249,2.249,0,1,1,4.5,0v9.518h10.85V94.835a2.275,2.275,0,0,1,2.263-2.253,2.25,2.25,0,0,1,2.237,2.253v9.518H62.863V94.835a2.25,2.25,0,1,1,4.5,0v9.518H80.207V94.835a2.253,2.253,0,1,1,4.506,0Zm12.729,1.758a8.717,8.717,0,1,1,6.178,2.566A8.783,8.783,0,0,1,97.443,96.592Zm3.171-9.215a4.247,4.247,0,0,0,0,6.028,4.149,4.149,0,0,0,3.007,1.257,4.262,4.262,0,0,0,3.007-7.285,4.188,4.188,0,0,0-3.007-1.246A4.262,4.262,0,0,0,100.614,87.377Zm19.107-23.706H2.853A2.252,2.252,0,0,1,0,61.5V27.746A27.713,27.713,0,0,1,27.681,0H94.888a27.71,27.71,0,0,1,27.681,27.746V61.5a2.248,2.248,0,0,1-2.849,2.171ZM63.539,59.16h54.535V27.746A23.234,23.234,0,0,0,94.878,4.5H63.539Zm-4.5,0V4.5H27.7A23.23,23.23,0,0,0,4.5,27.746V59.16Zm-28.1-9.769V36.368H17.486a2.255,2.255,0,0,1,0-4.511H30.943v-13a2.251,2.251,0,1,1,4.5,0v13H48.55a2.255,2.255,0,0,1,0,4.511H35.445V49.391a2.251,2.251,0,1,1-4.5,0ZM75.087,36.368a2.255,2.255,0,0,1,0-4.511h30.945a2.255,2.255,0,0,1,0,4.511Z" fill="#7ad1be"/>
</svg>
