<svg xmlns="http://www.w3.org/2000/svg" width="73.476" height="98.329" viewBox="0 0 73.476 98.329">
  <g id="الكيمياء" opacity="0.3">
    <path id="Path_805" data-name="Path 805" d="M120.462,124.883,97.656,72.947V45.131A4.862,4.862,0,0,0,99.2,41.583v-.057a4.908,4.908,0,0,0-4.9-4.9H74.3a4.9,4.9,0,0,0-4.885,4.9v.057a4.9,4.9,0,0,0,1.927,3.888V72.935L64.751,87.671a1.644,1.644,0,0,0-.351.578,1.4,1.4,0,0,0-.091.419L48.2,124.849a7.2,7.2,0,0,0,6.563,10.111h59.123a7.2,7.2,0,0,0,6.574-10.077ZM74.511,73.967a1.552,1.552,0,0,0,.147-.669V44.519A1.666,1.666,0,0,0,73.672,43a1.553,1.553,0,0,1-.941-1.417v-.057A1.564,1.564,0,0,1,74.3,39.962H94.3a1.575,1.575,0,0,1,1.576,1.564v.057a1.553,1.553,0,0,1-.748,1.326,1.655,1.655,0,0,0-.793,1.417V73.321a1.722,1.722,0,0,0,.136.669l4.534,10.2a13.375,13.375,0,0,0-5.871-1.8c-3.718-.215-6.54,1.326-9.272,2.822a21.843,21.843,0,0,1-9.147,3.208,19.507,19.507,0,0,1-6.382-.6Zm42.608,55.914a3.8,3.8,0,0,1-3.23,1.746H54.765a3.775,3.775,0,0,1-3.23-1.757,3.82,3.82,0,0,1-.295-3.672L66.962,90.912a22.953,22.953,0,0,0,6.3.907,14.7,14.7,0,0,0,1.723-.068,24.642,24.642,0,0,0,10.473-3.6c2.528-1.383,4.727-2.573,7.481-2.414,2.936.159,5.917,1.825,8.875,4.953l15.6,35.534A3.774,3.774,0,0,1,117.118,129.881Z" transform="translate(-47.587 -36.63)" fill="#f669a9"/>
    <path id="Path_806" data-name="Path 806" d="M76.24,90.121a3.31,3.31,0,1,0-3.31,3.3,3.31,3.31,0,0,0,3.31-3.3Z" transform="translate(-44.646 -29.933)" fill="#f669a9"/>
    <path id="Path_807" data-name="Path 807" d="M84.369,74.55A2.335,2.335,0,1,0,82,72.283,2.335,2.335,0,0,0,84.369,74.55Z" transform="translate(-42.993 -32.192)" fill="#f669a9"/>
    <ellipse id="Ellipse_101" data-name="Ellipse 101" cx="6.257" cy="6.257" rx="6.257" ry="6.257" transform="translate(26.375 73.013) rotate(-67.5)" fill="#f669a9"/>
  </g>
</svg>
