<svg xmlns="http://www.w3.org/2000/svg" width="150.933" height="122.324" viewBox="0 0 150.933 122.324">
  <g id="Group_534" data-name="Group 534" transform="translate(0 0)" opacity="0.258">
    <path id="Path_606" data-name="Path 606" d="M88.753,152.067l12.067-.472a2.519,2.519,0,0,0,2.133-3.765,13.012,13.012,0,0,1-1.188-2.562,8.819,8.819,0,0,1-.387-2.663h0a11.8,11.8,0,0,1,3.521-8.431,12,12,0,0,1,8.5-3.536h0a12.1,12.1,0,0,1,8.589,3.493,11.767,11.767,0,0,1,3.564,8.417h0a11.452,11.452,0,0,1-1.517,5.726,2.519,2.519,0,0,0,2.233,3.75l26.1-.143a2.548,2.548,0,0,0,2.534-2.534l-.172-31.936a2.548,2.548,0,0,0-3.722-2.19,12.153,12.153,0,0,1-5.339,1.274H145.6A12.067,12.067,0,0,1,137.08,113a11.738,11.738,0,0,1-3.564-8.417v-.072a11.752,11.752,0,0,1,3.521-8.431,12.053,12.053,0,0,1,8.5-3.536h0a12.167,12.167,0,0,1,5.3,1.217,2.548,2.548,0,0,0,3.407-1.174,2.448,2.448,0,0,0,.258-1.1l-.158-29.96a2.434,2.434,0,0,0-.759-1.775,2.52,2.52,0,0,0-1.8-.73l-26.31.143v2.519l2.19,1.3a16.834,16.834,0,0,0,2.419-8.7V54.17A16.891,16.891,0,0,0,125,42.2a17.349,17.349,0,0,0-12.139-4.953h-.1a17.364,17.364,0,0,0-12.11,5.024,16.891,16.891,0,0,0-5,12V54.4h.1a16.906,16.906,0,0,0,2.505,8.761l2.19-1.317V59.323l-16.462.243a2.534,2.534,0,1,0,.086,5.053l16.462-.243a2.548,2.548,0,0,0,2.19-1.317,2.476,2.476,0,0,0,0-2.534,11.867,11.867,0,0,1-1.818-6.184h0a11.867,11.867,0,0,1,3.536-8.446,12.039,12.039,0,0,1,8.5-3.521h0a12.11,12.11,0,0,1,8.589,3.478A11.881,11.881,0,0,1,125.1,54.27h0a11.867,11.867,0,0,1-1.689,6.112A2.505,2.505,0,0,0,125.6,64.2l23.691-.115.143,27.441h2.548l1.117-2.276a17.364,17.364,0,0,0-7.529-1.718h-.086a17.306,17.306,0,0,0-12.1,5.024,16.834,16.834,0,0,0-5,11.981v.1a16.905,16.905,0,0,0,5.067,11.967,17.277,17.277,0,0,0,12.11,4.953h.1a17.506,17.506,0,0,0,7.6-1.8l-1.145-2.262h-2.548l.157,29.417-23.533.129v2.519l2.219,1.231a16.548,16.548,0,0,0,2.147-8.26v-.086h0A17.178,17.178,0,0,0,113.389,125.5h-.1a17.335,17.335,0,0,0-12.1,5.024,16.834,16.834,0,0,0-5,12v.086a13.226,13.226,0,0,0,.63,4.151,17.179,17.179,0,0,0,1.618,3.536l2.219-1.245-.115-2.519-12.067.458a2.534,2.534,0,0,0-2.448,2.62h0a2.562,2.562,0,0,0,2.648,2.448Z" transform="translate(-3.968 -37.25)" fill="#7ad1be"/>
    <path id="Path_607" data-name="Path 607" d="M93.671,53.167A18.609,18.609,0,0,0,75.034,71.562a2.534,2.534,0,0,0,.744,1.789,2.662,2.662,0,0,0,1.8.744,2.548,2.548,0,0,0,2.548-2.534A18.609,18.609,0,0,0,61.521,53.11H29.828a2.562,2.562,0,0,0-2.548,2.534v85.3a2.434,2.434,0,0,0,.759,1.775,2.534,2.534,0,0,0,1.789.744H57.813a23.118,23.118,0,0,1,17.807,8.345,2.577,2.577,0,0,0,3.636.315,2.177,2.177,0,0,0,.315-.315,23.118,23.118,0,0,1,17.807-8.345,2.519,2.519,0,1,0,0-5.039A28.2,28.2,0,0,0,75.62,148.617l1.975,1.675,1.975-1.6A28.243,28.243,0,0,0,57.813,138.5H32.376V58.22h29.13a13.57,13.57,0,0,1,9.576,3.922,13.241,13.241,0,0,1,3.965,9.419,2.534,2.534,0,0,0,.744,1.789,2.662,2.662,0,0,0,1.8.744,2.548,2.548,0,0,0,2.548-2.534,13.327,13.327,0,0,1,3.994-9.419,13.5,13.5,0,0,1,9.576-3.922,2.534,2.534,0,0,0,0-5.053Z" transform="translate(-27.28 -30.407)" fill="#7ad1be"/>
    <path id="Path_608" data-name="Path 608" d="M67.332,70.725,65.9,69.809a15.331,15.331,0,0,0-8.589-2.577H37.071a2.534,2.534,0,1,0,0,5.053H57.412A10.135,10.135,0,0,1,63.138,74l1.431.916a2.577,2.577,0,0,0,3.536-.687,2.519,2.519,0,0,0-.644-3.478h0Z" transform="translate(-24.231 -24.317)" fill="#7ad1be"/>
    <path id="Path_609" data-name="Path 609" d="M67.332,86.965,65.9,86.049a15.445,15.445,0,0,0-8.589-2.577H37.071a2.534,2.534,0,1,0,0,5.053H57.412a10.135,10.135,0,0,1,5.726,1.718l1.431.916a2.577,2.577,0,0,0,3.536-.687,2.519,2.519,0,0,0-.644-3.478h0Z" transform="translate(-24.231 -17.31)" fill="#7ad1be"/>
    <path id="Path_610" data-name="Path 610" d="M67.332,103.215,65.9,102.3a15.6,15.6,0,0,0-8.589-2.577H37.071a2.534,2.534,0,1,0,0,5.053H57.412a10.249,10.249,0,0,1,5.726,1.718l1.431.916a2.562,2.562,0,0,0,3.536-.687,2.519,2.519,0,0,0-.644-3.478h0Z" transform="translate(-24.231 -10.299)" fill="#7ad1be"/>
  </g>
</svg>
