<svg xmlns="http://www.w3.org/2000/svg" xmlns:xlink="http://www.w3.org/1999/xlink" width="109.618" height="82.26" viewBox="0 0 109.618 82.26">
  <defs>
    <linearGradient id="linear-gradient" x1="0.5" x2="0.5" y2="1" gradientUnits="objectBoundingBox">
      <stop offset="0" stop-color="#5b87eb"/>
      <stop offset="1" stop-color="#35a6d8"/>
    </linearGradient>
  </defs>
  <g id="verbalImage6" transform="translate(-25.192 -38.87)">
    <g id="Layer_1" data-name="Layer 1">
      <path id="Path_644" data-name="Path 644" d="M133.07,45.76a1.76,1.76,0,0,0-1.76,1.76v66.07a102.738,102.738,0,0,0-14-1c-7.79,0-17.42.89-26.55,4.25a11.51,11.51,0,0,1-3.94.73,10.241,10.241,0,0,1-1.66-.14h0a9.3,9.3,0,0,1-1.47-.37,3.71,3.71,0,0,1-1.47-.86,2,2,0,0,1-.26-.38,18.25,18.25,0,0,1,13.53-6h26.58a1.76,1.76,0,0,0,1.76-1.76V40.63a1.76,1.76,0,0,0-1.76-1.76H92.59A14.4,14.4,0,0,0,80,46.33a14.4,14.4,0,0,0-12.59-7.46H37.94a1.76,1.76,0,0,0-1.76,1.77h0V108.1a1.75,1.75,0,0,0,1.76,1.76H64.52a18.238,18.238,0,0,1,13.518,6l0,.062a2,2,0,0,1-.4.48,4.13,4.13,0,0,1-1.14.64,9.32,9.32,0,0,1-1.63.43h0a10.439,10.439,0,0,1-1.67.13,11.27,11.27,0,0,1-3.94-.73c-9.13-3.36-18.75-4.25-26.54-4.25a102.522,102.522,0,0,0-14,1V47.51a1.761,1.761,0,0,0-3.52-.14.33.33,0,0,0,0,.14v68.14a1.75,1.75,0,0,0,1.75,1.76h0a1.841,1.841,0,0,0,.33,0h0a91.8,91.8,0,0,1,15.44-1.24h0c7.51,0,16.74.89,25.3,4a14.86,14.86,0,0,0,5.15.95,14.36,14.36,0,0,0,2.26-.19h0a13.391,13.391,0,0,0,2-.52A7.5,7.5,0,0,0,80,119l.06.05a7.46,7.46,0,0,0,2.2,1.28,11.57,11.57,0,0,0,2.31.61h0a13.061,13.061,0,0,0,2.25.19,14.68,14.68,0,0,0,5.16-.94c8.55-3.15,17.78-4,25.3-4h0a100.442,100.442,0,0,1,11.1.62c1.38.16,2.47.31,3.21.43l.84.14h.28a1.841,1.841,0,0,0,.33,0,1.77,1.77,0,0,0,1.77-1.75h0V47.52a1.76,1.76,0,0,0-1.77-1.76Zm-48.14-.19a10.84,10.84,0,0,1,7.66-3.17H120.3v63.94H95.48a21.76,21.76,0,0,0-13.72,4.87v-58a10.8,10.8,0,0,1,3.17-7.64ZM64.52,106.34H39.7V42.39H67.4A10.84,10.84,0,0,1,78.24,53.23h0v58a21.78,21.78,0,0,0-13.72-4.89Z" fill="url(#linear-gradient)"/>
      <path id="Path_645" data-name="Path 645" d="M88.74,100.62a1.79,1.79,0,0,0,1-.3L91,99.49a9.72,9.72,0,0,1,5.45-1.67h18.33a1.76,1.76,0,0,0,0-3.52H96.41A13.31,13.31,0,0,0,89,96.56l-1.23.84a1.76,1.76,0,0,0,1,3.22Z" fill="url(#linear-gradient)"/>
      <path id="Path_646" data-name="Path 646" d="M88.74,90a1.72,1.72,0,0,0,1-.3L91,88.89a9.79,9.79,0,0,1,5.45-1.66h18a1.761,1.761,0,0,0,.12-3.52H96.41A13.33,13.33,0,0,0,89,86l-1.23.83a1.77,1.77,0,0,0-.48,2.45,1.82,1.82,0,0,0,1.46.78Z" fill="url(#linear-gradient)"/>
      <path id="Path_647" data-name="Path 647" d="M88.74,58.23a1.72,1.72,0,0,0,1-.3L91,57.1a9.79,9.79,0,0,1,5.45-1.66h18.33a1.76,1.76,0,1,0,0-3.52H96.41A13.22,13.22,0,0,0,89,54.18L87.76,55a1.76,1.76,0,0,0,1,3.22Z" fill="url(#linear-gradient)"/>
      <path id="Path_648" data-name="Path 648" d="M88.74,68.83a1.79,1.79,0,0,0,1-.3L91,67.7A9.72,9.72,0,0,1,96.41,66h18a1.761,1.761,0,0,0,.12-3.52H96.41A13.26,13.26,0,0,0,89,64.78l-1.23.83a1.76,1.76,0,0,0,1,3.22Z" fill="url(#linear-gradient)"/>
      <path id="Path_649" data-name="Path 649" d="M96.41,73.11A13.31,13.31,0,0,0,89,75.37l-1.23.83a1.773,1.773,0,1,0,1.89,3,.18.18,0,0,0,.07,0L91,78.29a9.79,9.79,0,0,1,5.45-1.66h18.33a1.76,1.76,0,0,0,0-3.52Z" fill="url(#linear-gradient)"/>
      <path id="Path_650" data-name="Path 650" d="M71.94,65.61h0l-1.23-.83a13.26,13.26,0,0,0-7.42-2.27h-18a1.76,1.76,0,1,0,0,3.52h18a9.72,9.72,0,0,1,5.45,1.67l1.24.83a1.77,1.77,0,0,0,2-2.92Z" fill="url(#linear-gradient)"/>
      <path id="Path_651" data-name="Path 651" d="M71.94,55h0l-1.23-.83a13.33,13.33,0,0,0-7.42-2.26H45a1.76,1.76,0,1,0,0,3.52H63.29a9.79,9.79,0,0,1,5.45,1.66l1.24.84a1.774,1.774,0,1,0,2-2.93Z" fill="url(#linear-gradient)"/>
      <path id="Path_652" data-name="Path 652" d="M71.94,86.8h0L70.71,86a13.26,13.26,0,0,0-7.42-2.27h-18a1.77,1.77,0,0,0,0,3.53h18a9.64,9.64,0,0,1,5.45,1.66l1.24.83a1.77,1.77,0,1,0,2-2.92Z" fill="url(#linear-gradient)"/>
      <path id="Path_653" data-name="Path 653" d="M45,76.63H63.29a9.79,9.79,0,0,1,5.45,1.66l1.24.83a1.77,1.77,0,1,0,2-2.92l-1.23-.83a13.33,13.33,0,0,0-7.42-2.26H45a1.76,1.76,0,1,0,0,3.52Z" fill="url(#linear-gradient)"/>
      <path id="Path_654" data-name="Path 654" d="M71.94,97.39h0l-1.23-.83a13.33,13.33,0,0,0-7.42-2.26H45a1.76,1.76,0,0,0,0,3.52H63.29a9.72,9.72,0,0,1,5.45,1.67l1.24.83a1.76,1.76,0,0,0,2-2.87h-.07Z" fill="url(#linear-gradient)"/>
    </g>
  </g>
</svg>
