<svg xmlns="http://www.w3.org/2000/svg" xmlns:xlink="http://www.w3.org/1999/xlink" width="86.217" height="77.181" viewBox="0 0 86.217 77.181">
  <defs>
    <linearGradient id="linear-gradient" x1="0.5" x2="0.5" y2="1" gradientUnits="objectBoundingBox">
      <stop offset="0" stop-color="#5b87eb"/>
      <stop offset="1" stop-color="#35a6d8"/>
    </linearGradient>
  </defs>
  <g id="Layer_2" data-name="Layer 2" transform="translate(-36.873 -41.41)">
    <g id="Layer_1" data-name="Layer 1">
      <path id="Path_553" data-name="Path 553" d="M90.93,41.41a27.86,27.86,0,0,0-25.57,16.8,1.35,1.35,0,0,0,2.48,1.071A25.14,25.14,0,0,1,90.93,44.11h.35a25.22,25.22,0,0,1,24.78,25.08v.06a25,25,0,0,1-3.8,13.29,5.76,5.76,0,0,0-.87,3.08,5.93,5.93,0,0,0,1.48,3.93A35.52,35.52,0,0,0,117,93.42l.87.7-18,.18a1.35,1.35,0,1,0,0,2.7h0l18-.18h3.87a1.35,1.35,0,0,0,1.35-1.34,1.37,1.37,0,0,0-.53-1.08c-1.19-.91-2.57-1.94-3.93-3.06a33.419,33.419,0,0,1-3.77-3.56,3.29,3.29,0,0,1-.81-2.16,3.13,3.13,0,0,1,.47-1.65,27.72,27.72,0,0,0,4.2-14.72v-.06a27.92,27.92,0,0,0-27.4-27.78h-.4" fill="url(#linear-gradient)"/>
      <path id="Path_554" data-name="Path 554" d="M46.59,104.76h0l1.14-.71a25.11,25.11,0,0,1-3.8-13.29V90.7A25.23,25.23,0,0,1,68.71,65.62h.36a25.14,25.14,0,0,1,0,50.28l-26.9-.28c.29-.22.58-.45.87-.7a35.429,35.429,0,0,0,4.08-3.86,5.94,5.94,0,0,0,1.48-3.93,5.82,5.82,0,0,0-.87-3.09l-1.15.72m22.5-41.84h-.4A27.92,27.92,0,0,0,41.24,90.7h0v.06a27.71,27.71,0,0,0,4.2,14.71h0a3.13,3.13,0,0,1,.47,1.66,3.28,3.28,0,0,1-.81,2.15,31.709,31.709,0,0,1-3.77,3.56C40,114,38.59,115,37.4,115.9a1.35,1.35,0,0,0-.25,1.89,1.32,1.32,0,0,0,1.07.53H42.1l27,.27h0a27.838,27.838,0,1,0,.33-55.675l-.33,0" fill="url(#linear-gradient)"/>
      <path id="Path_555" data-name="Path 555" d="M109,70.5h-.13A1.35,1.35,0,0,0,107.7,72h0a1.35,1.35,0,0,0,1.3,1.25h.14a1.35,1.35,0,0,0,1.21-1.47h0v-.05A1.35,1.35,0,0,0,109,70.5" fill="url(#linear-gradient)"/>
      <path id="Path_556" data-name="Path 556" d="M91.83,50.11h0a12.533,12.533,0,0,0-1.84.09,1.352,1.352,0,1,0,.13,2.7h.14a15.43,15.43,0,0,1,16.91,13.8h0a1.35,1.35,0,0,0,1.34,1.22h.14a1.36,1.36,0,0,0,1.21-1.48h0a18.16,18.16,0,0,0-18-16.33" fill="url(#linear-gradient)"/>
    </g>
  </g>
</svg>
