<svg xmlns="http://www.w3.org/2000/svg" xmlns:xlink="http://www.w3.org/1999/xlink" width="127.22" height="69.63" viewBox="0 0 127.22 69.63">
  <defs>
    <linearGradient id="linear-gradient" x1="0.5" x2="0.5" y2="1" gradientUnits="objectBoundingBox">
      <stop offset="0" stop-color="#5b87eb"/>
      <stop offset="1" stop-color="#35a6d8"/>
    </linearGradient>
  </defs>
  <g id="Layer_1" data-name="Layer 1" transform="translate(-16.41 -45.2)">
    <path id="Path_559" data-name="Path 559" d="M52.14,55.65h1.67v-.12a7.06,7.06,0,0,1,7.06-7H61a7.06,7.06,0,0,1,7,7.05v.11a7,7,0,0,1-1,3.53,1.67,1.67,0,0,0,.57,2.29,1.54,1.54,0,0,0,.83.24h14V78.37a1.67,1.67,0,0,0,2.48,1.45,7,7,0,0,1,3.4-.87h.12a7.06,7.06,0,0,1,7,7.06v.11a7.06,7.06,0,0,1-7.06,6.95h-.11a7,7,0,0,1-3.3-.87,1.67,1.67,0,0,0-2.26.67,1.72,1.72,0,0,0-.2.8v17.76H71a10.1,10.1,0,0,0,.33-2.44v-.16a10.41,10.41,0,0,0-10.24-10.4H60.9a10.4,10.4,0,0,0-10.39,10.25v.16a10.43,10.43,0,0,0,.33,2.61H32.78V93.66a1.66,1.66,0,0,0-2.48-1.45,7,7,0,0,1-3.47.91h-.11a7.06,7.06,0,0,1-7-7.06h0V86a7.06,7.06,0,0,1,7.06-7h.11a7,7,0,0,1,3.36.9,1.66,1.66,0,0,0,2.48-1.45V61.83H53.4a1.67,1.67,0,0,0,1.42-2.53,7.08,7.08,0,0,1-1-3.64H52.14M61,45.24h-.14A10.41,10.41,0,0,0,50.47,55.48v.17h0a10.53,10.53,0,0,0,.4,2.84H31.08a1.67,1.67,0,0,0-1.67,1.67V76A9.67,9.67,0,0,0,27,75.66h-.2A10.39,10.39,0,0,0,16.41,85.9v.169h0A10.4,10.4,0,0,0,26.65,96.46h.16a10.15,10.15,0,0,0,2.63-.34v17a1.67,1.67,0,0,0,1.65,1.66H53.3a1.67,1.67,0,0,0,1.7-1.67,1.59,1.59,0,0,0-.21-.8,7.11,7.11,0,0,1-.9-3.46v-.11a7.06,7.06,0,0,1,7.06-7H61a7.06,7.06,0,0,1,7,7.1V109a6.88,6.88,0,0,1-.9,3.34,1.67,1.67,0,0,0,.64,2.27,1.71,1.71,0,0,0,.79.22H84.09a1.66,1.66,0,0,0,1.67-1.66v-17a10.64,10.64,0,0,0,2.38.31h.17A10.4,10.4,0,0,0,98.68,86.17V86h0A10.4,10.4,0,0,0,88.439,75.6H88.26a10.811,10.811,0,0,0-2.53.31V60.12a1.66,1.66,0,0,0-1.64-1.66H70.89a10.52,10.52,0,0,0,.39-2.68v-.16A10.4,10.4,0,0,0,61,45.24h0" fill="url(#linear-gradient)"/>
    <path id="Path_560" data-name="Path 560" d="M118.87,45.2h-.18a10.4,10.4,0,0,0-10.38,10.24v.17h0a10.53,10.53,0,0,0,.4,2.84H91.53a1.67,1.67,0,1,0,0,3.33h19.7a1.67,1.67,0,0,0,1.66-1.68,1.7,1.7,0,0,0-.24-.85,6.9,6.9,0,0,1-1-3.65h0v-.1a7.06,7.06,0,0,1,7.06-7h.11a7.06,7.06,0,0,1,7,7.06h0v.12a6.91,6.91,0,0,1-1,3.53,1.67,1.67,0,0,0,.57,2.29,1.74,1.74,0,0,0,.83.24h14.06v14a10.71,10.71,0,0,0-2-.23H138a10.4,10.4,0,0,0-10.39,10.25V86a10.39,10.39,0,0,0,10.24,10.38H138a10.16,10.16,0,0,0,2.2-.24v15.25H128.81a10.109,10.109,0,0,0,.33-2.45v-.16A10.4,10.4,0,0,0,118.9,98.4h-.17a10.39,10.39,0,0,0-10.39,10.241v.169a10.35,10.35,0,0,0,.33,2.6l-17.12.06a1.67,1.67,0,1,0,0,3.33h19.57a1.66,1.66,0,0,0,1.66-1.68,1.59,1.59,0,0,0-.21-.8,7,7,0,0,1-.91-3.46v-.11a7.07,7.07,0,0,1,7.06-7h.12a7.06,7.06,0,0,1,7,7.06v.12a6.88,6.88,0,0,1-.9,3.34,1.67,1.67,0,0,0,.64,2.27,1.58,1.58,0,0,0,.79.21h15.59a1.66,1.66,0,0,0,1.67-1.66h0V93.81a1.67,1.67,0,0,0-1.68-1.66,1.7,1.7,0,0,0-.73.17,7,7,0,0,1-3.12.73h-.12A7.06,7.06,0,0,1,131,86v-.11a7.07,7.07,0,0,1,7.06-7h.11a7.14,7.14,0,0,1,3,.73,1.67,1.67,0,0,0,2.24-.76,1.71,1.71,0,0,0,.17-.74V60.09a1.66,1.66,0,0,0-1.65-1.66H128.72a10.219,10.219,0,0,0,.39-2.68V55.6h0a10.39,10.39,0,0,0-10.24-10.4" fill="url(#linear-gradient)"/>
    <path id="Path_561" data-name="Path 561" d="M49.3,67.38H40.21a1.67,1.67,0,0,0-1.67,1.67h0v9a1.66,1.66,0,0,0,1.64,1.66h0a1.66,1.66,0,0,0,1.66-1.67h0V70.71h7.4a1.67,1.67,0,1,0,0-3.33h0" fill="url(#linear-gradient)"/>
    <path id="Path_562" data-name="Path 562" d="M54.75,67.37h-.09a1.67,1.67,0,1,0,0,3.34h.09a1.67,1.67,0,0,0,0-3.34" fill="url(#linear-gradient)"/>
  </g>
</svg>
