<svg xmlns="http://www.w3.org/2000/svg" xmlns:xlink="http://www.w3.org/1999/xlink" width="87.114" height="83.18" viewBox="0 0 87.114 83.18">
  <defs>
    <linearGradient id="linear-gradient" x1="0.5" x2="0.5" y2="1" gradientUnits="objectBoundingBox">
      <stop offset="0" stop-color="#5b87eb"/>
      <stop offset="1" stop-color="#35a6d8"/>
    </linearGradient>
  </defs>
  <path id="الخطا_السياقي" data-name="الخطأ السياقي" d="M99.64,38.41H37.85a1.4,1.4,0,0,0-1.4,1.4h0v80.38a1.4,1.4,0,0,0,1.4,1.4H99.64a1.4,1.4,0,0,0,1.4-1.4h0V109.88a1.4,1.4,0,1,0-2.8,0v8.91h-59V41.21h59V52.43a1.4,1.4,0,0,0,2.8,0h0V39.81a1.4,1.4,0,0,0-1.4-1.4h0M83.51,54h0a25.257,25.257,0,1,0,0,50.515v0a25.223,25.223,0,0,0,14-4.242L96.9,99.65a1.38,1.38,0,0,1,0-2l6-6a1.41,1.41,0,0,1,2,0l.39.39a25.16,25.16,0,0,0,3.47-12.8H106a22.506,22.506,0,1,0,0,.01h2.8A25.25,25.25,0,0,0,83.51,54m34.38,61.5a2.79,2.79,0,0,1-2-.83l-16-16,4-4,16,16a2.85,2.85,0,0,1,0,4h0a2.83,2.83,0,0,1-2,.84M105.28,92.05a25.4,25.4,0,0,1-7.76,8.22l16.38,16.38a5.65,5.65,0,0,0,4,1.65h0a5.67,5.67,0,0,0,4-1.65l-1-1,1,1a5.64,5.64,0,0,0,0-8h0L105.28,92m-.87-1.15a3.38,3.38,0,0,0-1.49.77l-6,6a1.41,1.41,0,0,0,0,2l.62.61a25.3,25.3,0,0,0,7.76-8.22M83.55,61.93h0a1.4,1.4,0,0,0,0,2.8h0a14.381,14.381,0,0,1,14.2,12.093A1.4,1.4,0,0,0,99.13,78h.23a1.4,1.4,0,0,0,1.16-1.6,17.2,17.2,0,0,0-17-14.44m16.1,18.77H99.5a1.41,1.41,0,0,0-1.25,1.53h0a1.4,1.4,0,0,0,1.39,1.26h.14A1.39,1.39,0,0,0,101,82h0a1.41,1.41,0,0,0-1.39-1.26m-7.23,28.75H44.06a1.4,1.4,0,0,0,0,2.8H92.43a1.4,1.4,0,1,0,0-2.8h0M63.29,102.3H44.06a1.4,1.4,0,1,0,0,2.8H63.29a1.4,1.4,0,0,0,0-2.8M56.72,95H44.06a1.4,1.4,0,0,0,0,2.8H56.72a1.4,1.4,0,0,0,0-2.8" transform="translate(-36.45 -38.41)" fill="url(#linear-gradient)"/>
</svg>
