<svg id="logo" xmlns="http://www.w3.org/2000/svg" xmlns:xlink="http://www.w3.org/1999/xlink" width="105.754" height="93.154" viewBox="0 0 105.754 93.154">
  <defs>
    <linearGradient id="linear-gradient" x1="0.5" x2="0.5" y2="1" gradientUnits="objectBoundingBox">
      <stop offset="0" stop-color="#85ddb6"/>
      <stop offset="1" stop-color="#6dc9cc"/>
    </linearGradient>
  </defs>
  <path id="Path_28" data-name="Path 28" d="M304.619,870.477c-.25.887-.51,1.766-.794,2.659-1.043,3.36-2.351,7-4.114,11.454l-.491,1.223a16.367,16.367,0,0,1-4.436,6.349c-3.46,3.013-8.289,4.542-14.352,4.542a49.035,49.035,0,0,1-11.417-1.5c-1.977-.47-4.032-1.065-6.1-1.767a105.16,105.16,0,0,1-20.024-9.359c-.567-.343-1.141-.691-1.7-1.051-1.035-.636-2.086-1.327-3.116-2.048-.585-.4-1.178-.814-1.754-1.235-.194-.141-.388-.283-.574-.426a68.889,68.889,0,0,1-10.971-10c-.359-.408-.7-.821-1.049-1.243-7.233-8.837-9.83-17.906-7.511-26.228a24.613,24.613,0,0,1,2.249-5.439l.149-.255c.124-.233.273-.486.431-.742a24.607,24.607,0,0,1,3-3.9c4.989-5.343,13.1-9.681,22.836-12.215.482-.137.976-.258,1.471-.372,1.783-.434,3.66-.81,5.572-1.115.456-.071.844-.131,1.232-.182a77.218,77.218,0,0,1,9.453-.791l1.682-.021c.958,0,1.912.022,2.869.064,1.412.052,2.813.15,4.158.293,1.146.1,2.2.235,3.223.4a54.036,54.036,0,0,1,6.29,1.3c7.517,2,13.588,5.485,17.556,10.064C307.652,839.618,309.634,852.823,304.619,870.477Z" transform="translate(-201.547 -808.635)" opacity="0.6" fill="url(#linear-gradient)"/>
  <path id="Path_28-2" data-name="Path 28" d="M175.619,794.477c-.25.887-.51,1.766-.794,2.659-1.043,3.36-2.351,7-4.114,11.454l-.491,1.223a16.366,16.366,0,0,1-4.436,6.349c-3.46,3.013-8.289,4.542-14.352,4.542a49.041,49.041,0,0,1-11.417-1.5c-1.977-.47-4.032-1.065-6.1-1.767a105.152,105.152,0,0,1-20.024-9.359c-.567-.343-1.141-.691-1.7-1.051-1.035-.636-2.086-1.327-3.116-2.048-.585-.4-1.178-.814-1.754-1.235-.194-.141-.388-.283-.574-.426a68.881,68.881,0,0,1-10.971-10c-.359-.408-.7-.821-1.049-1.243-7.233-8.837-9.83-17.906-7.511-26.228a24.612,24.612,0,0,1,2.249-5.439l.149-.255c.124-.233.273-.486.431-.742a24.6,24.6,0,0,1,3-3.9c4.989-5.343,13.1-9.681,22.836-12.215.482-.137.976-.258,1.471-.372,1.783-.434,3.66-.809,5.572-1.115.456-.071.844-.131,1.232-.182a77.205,77.205,0,0,1,9.453-.791l1.682-.021c.958,0,1.912.022,2.869.064,1.412.052,2.813.15,4.158.293,1.146.1,2.2.235,3.223.4a54.028,54.028,0,0,1,6.29,1.295c7.517,2,13.588,5.485,17.556,10.064C178.652,763.618,180.634,776.823,175.619,794.477Z" transform="translate(-86.391 -740.805)" opacity="0.596" fill="url(#linear-gradient)"/>
  <g id="Group_210" data-name="Group 210" transform="translate(1.911 10.793)" opacity="0.8">
    <g id="Group_209" data-name="Group 209" transform="translate(0 0)">
      <g id="Path_28-3" data-name="Path 28" style="isolation: isolate">
        <path id="Path_131" data-name="Path 131" d="M170.473,923.571a50.278,50.278,0,0,1-11.707-1.536c-.9-.215-1.84-.459-2.776-.726a1.241,1.241,0,0,1,.677-2.388c.9.257,1.8.492,2.676.7a47.84,47.84,0,0,0,11.131,1.468c5.754,0,10.31-1.426,13.539-4.237a15.14,15.14,0,0,0,4.1-5.875l.491-1.222c1.75-4.42,3.048-8.03,4.08-11.356.257-.809.513-1.666.785-2.627,4.89-17.211,2.989-30.045-5.981-40.392-3.806-4.391-9.663-7.736-16.939-9.676a53.074,53.074,0,0,0-6.148-1.266c-1.02-.166-2.045-.293-3.157-.394-1.332-.142-2.7-.238-4.092-.289-.956-.042-1.9-.063-2.824-.063l-1.666.021a76.293,76.293,0,0,0-9.289.778c-.4.053-.775.112-1.221.181-1.876.3-3.718.669-5.469,1.095-.569.131-1.017.244-1.425.359-9.539,2.482-17.438,6.693-22.269,11.865a23.435,23.435,0,0,0-2.85,3.71c-.162.262-.29.481-.388.668l-.174.3a23.349,23.349,0,0,0-2.126,5.146c-1.947,6.985-.183,14.673,5.1,22.234a1.24,1.24,0,1,1-2.03,1.424c-5.724-8.189-7.612-16.6-5.458-24.326a25.866,25.866,0,0,1,2.363-5.713l.146-.25c.123-.231.274-.49.46-.791a25.894,25.894,0,0,1,3.15-4.1c5.143-5.507,13.464-9.969,23.426-12.561.423-.12.91-.243,1.505-.38,1.8-.438,3.706-.82,5.653-1.131.471-.073.868-.134,1.264-.187a78.662,78.662,0,0,1,9.588-.8l1.694-.021h.006c.971,0,1.953.022,2.933.065,1.438.053,2.865.153,4.234.3,1.151.1,2.234.239,3.291.41a55.342,55.342,0,0,1,6.412,1.321c7.755,2.067,14.039,5.68,18.171,10.447,9.57,11.039,11.634,24.606,6.494,42.7-.279.986-.542,1.868-.805,2.695-1.049,3.379-2.366,7.046-4.143,11.532l-.493,1.228a17.6,17.6,0,0,1-4.775,6.823C181.945,921.94,176.842,923.571,170.473,923.571Z" transform="translate(-104.197 -841.21)" fill="#193051"/>
      </g>
    </g>
  </g>
  <g id="Group_212" data-name="Group 212" transform="translate(1.84 58.291)">
    <g id="Group_211" data-name="Group 211" transform="translate(0)" opacity="0.8">
      <path id="Path_132" data-name="Path 132" d="M549.6,1544.946a3.528,3.528,0,0,0-.712-1.065,3.339,3.339,0,0,0-1.044-.723,3.118,3.118,0,0,0-1.278-.264,3.182,3.182,0,0,0-1.288.264,3.3,3.3,0,0,0-1.054.723,3.514,3.514,0,0,0-.712,1.065,3.387,3.387,0,0,0,0,2.619,3.353,3.353,0,0,0,1.766,1.769,3.182,3.182,0,0,0,1.288.264,3.118,3.118,0,0,0,1.278-.264,3.381,3.381,0,0,0,1.756-1.769,3.387,3.387,0,0,0,0-2.619Z" transform="translate(-496.066 -1514.966)" fill="#193051"/>
      <path id="Path_133" data-name="Path 133" d="M154.513,1288.81a3.374,3.374,0,0,0,1.054.714,3.183,3.183,0,0,0,1.288.264,3.117,3.117,0,0,0,1.278-.264,3.38,3.38,0,0,0,1.756-1.769,3.386,3.386,0,0,0,0-2.619,3.525,3.525,0,0,0-.712-1.065,3.345,3.345,0,0,0-1.044-.723,3.117,3.117,0,0,0-1.278-.264,3.183,3.183,0,0,0-1.288.264,3.3,3.3,0,0,0-1.054.723,3.517,3.517,0,0,0-.712,1.065,3.387,3.387,0,0,0,0,2.619A3.38,3.38,0,0,0,154.513,1288.81Z" transform="translate(-148.171 -1283.083)" fill="#193051"/>
      <path id="Path_134" data-name="Path 134" d="M296.1,1547.753a2.4,2.4,0,0,0-1.774.683,2.362,2.362,0,0,0-.682,1.743,2.342,2.342,0,0,0,2.456,2.461,2.3,2.3,0,0,0,1.723-.683,2.441,2.441,0,0,0,.665-1.777,2.4,2.4,0,0,0-.665-1.743A2.3,2.3,0,0,0,296.1,1547.753Z" transform="translate(-273.244 -1519.303)" fill="#193051"/>
      <path id="Path_135" data-name="Path 135" d="M352.371,1547.753a2.4,2.4,0,0,0-1.774.683,2.362,2.362,0,0,0-.682,1.743,2.342,2.342,0,0,0,2.456,2.461,2.3,2.3,0,0,0,1.723-.683,2.441,2.441,0,0,0,.665-1.777,2.4,2.4,0,0,0-.665-1.743A2.3,2.3,0,0,0,352.371,1547.753Z" transform="translate(-323.475 -1519.303)" fill="#193051"/>
      <path id="Path_136" data-name="Path 136" d="M154.113,1311.935a4.3,4.3,0,0,0,1.245-1.9,8.724,8.724,0,0,0,.375-2.734v-9.124h-4.64v8.3a6.233,6.233,0,0,1-.136,1.4,2.062,2.062,0,0,1-.512.974,2.259,2.259,0,0,1-1.075.581,6.9,6.9,0,0,1-1.757.188,4.07,4.07,0,0,1-2.8-.906,3.018,3.018,0,0,1-1.024-2.375v-18.009h-4.64v18.146a6.233,6.233,0,0,1-.137,1.4,2.061,2.061,0,0,1-.512.974,2.258,2.258,0,0,1-1.075.581,6.9,6.9,0,0,1-1.757.188,4.07,4.07,0,0,1-2.8-.906,3.019,3.019,0,0,1-1.023-2.375v-8.167h-4.64v7.45q0,.444-.051.957a4.787,4.787,0,0,1-.2.991,3.555,3.555,0,0,1-.426.889,2.064,2.064,0,0,1-.682.649,3.431,3.431,0,0,1-1.45.444q-.8.069-2.2.068h-3.48q-.478,0-1.211-.034a4.378,4.378,0,0,1-1.143-.171,12.674,12.674,0,0,0,1.774-1.3,9.821,9.821,0,0,0,1.416-1.521,7.225,7.225,0,0,0,.938-1.675,4.8,4.8,0,0,0,.341-1.76,4.153,4.153,0,0,0-.648-2.324,5.25,5.25,0,0,0-1.74-1.64,8.664,8.664,0,0,0-2.542-.974,14.121,14.121,0,0,0-3.088-.325,11.778,11.778,0,0,0-2.183.205,17.883,17.883,0,0,0-2.115.53,17.508,17.508,0,0,0-1.893.718,11.131,11.131,0,0,0-1.45.769,6.431,6.431,0,0,0-.222.82q-.12.547-.222,1.2t-.188,1.264q-.086.615-.119.957.955.582,1.672,1.094t1.348,1.06q.631.547,1.262,1.179t1.45,1.487a17.4,17.4,0,0,0-3.173,1.418,8.167,8.167,0,0,0-2.047,1.64,5.514,5.514,0,0,0-1.075,1.828,6.021,6.021,0,0,0-.324,1.948,5.083,5.083,0,0,0,2.149,4.426,10.476,10.476,0,0,0,6.107,1.521,11.925,11.925,0,0,0,2.149-.188,16.9,16.9,0,0,0,1.91-.461l-.716-3.588q-.683.171-1.484.29a11.953,11.953,0,0,1-1.757.12,8.5,8.5,0,0,1-1.467-.12,4.093,4.093,0,0,1-1.177-.376,2.117,2.117,0,0,1-.8-.718,1.961,1.961,0,0,1-.307-1.111,2.541,2.541,0,0,1,1.092-1.931,11.856,11.856,0,0,1,3.514-1.76,8.144,8.144,0,0,0,2.149.957,11.006,11.006,0,0,0,3.1.376h4.81q1.364,0,2.371-.051a10.942,10.942,0,0,0,2.1-.325,6.011,6.011,0,0,0,3.309-2.051,4.084,4.084,0,0,0,1.143,1.111,7.08,7.08,0,0,0,1.5.752,9.233,9.233,0,0,0,1.6.427,8.7,8.7,0,0,0,1.448.137h0a12.963,12.963,0,0,0,4.162-.547,4.6,4.6,0,0,0,2.354-1.674,4.137,4.137,0,0,0,1.092,1.042,6.371,6.371,0,0,0,1.365.683,8.023,8.023,0,0,0,1.518.376,9.9,9.9,0,0,0,1.449.12h0a14.376,14.376,0,0,0,3.582-.376A5.54,5.54,0,0,0,154.113,1311.935Zm-38.26-7.108a4.537,4.537,0,0,1-.648,1.025,7.045,7.045,0,0,1-.921.922,8.141,8.141,0,0,1-1.024.735q-.888-1.23-1.928-2.409a19.451,19.451,0,0,0-2.507-2.341,3.683,3.683,0,0,1,.631-.307,7.6,7.6,0,0,1,.972-.308q.545-.136,1.16-.239a7.446,7.446,0,0,1,1.228-.1,5.71,5.71,0,0,1,1.569.188,3.078,3.078,0,0,1,1.023.478,1.749,1.749,0,0,1,.529.615,1.473,1.473,0,0,1,.154.632A2.675,2.675,0,0,1,115.853,1304.827Z" transform="translate(-103.537 -1287.774)" fill="#193051"/>
    </g>
  </g>
</svg>
