<svg xmlns="http://www.w3.org/2000/svg" width="125.739" height="98.329" viewBox="0 0 125.739 98.329">
  <g id="الرياضيات" opacity="0.3">
    <path id="Path_799" data-name="Path 799" d="M79.983,46.587A28.972,28.972,0,0,1,93.29,43.668a2.043,2.043,0,0,0,0-4.087h0a33.059,33.059,0,0,0-15.167,3.381c-10.46,5.449-12.26,15.374-16.14,37.157q-.6,3.418-1.314,7.3H44.954a2.043,2.043,0,1,0,0,4.087H59.878c-4.792,25.323-7.748,33.727-16.213,38.447a33.217,33.217,0,0,1-13.5,3.88,2.043,2.043,0,0,0,.182,4.075h.17a37.218,37.218,0,0,0,15.155-4.379c9.961-5.595,13.2-14.6,18.354-42.059H77.247a2.043,2.043,0,1,0,0-4.087H64.78c.426-2.287.815-4.464,1.216-6.519C69.754,59.808,71.323,51.111,79.983,46.587Z" transform="translate(-28.34 -39.576)" fill="#f669a9"/>
    <path id="Path_800" data-name="Path 800" d="M116.869,68.437a2.056,2.056,0,0,0-2.846.474L105.3,81.074,96.581,68.911a2.058,2.058,0,1,0-3.32,2.433L102.8,84.723,93.261,98.1a2.058,2.058,0,1,0,3.32,2.433L105.3,88.371l8.721,12.163a2.068,2.068,0,0,0,1.666.851,2.007,2.007,0,0,0,1.216-.377,2.032,2.032,0,0,0,.474-2.846l-9.536-13.379L117.38,71.4a2.043,2.043,0,0,0-.511-2.968Z" transform="translate(-14.385 -33.415)" fill="#f669a9"/>
    <path id="Path_801" data-name="Path 801" d="M122.39,55.037a2.043,2.043,0,1,0-2.907,2.858c6.933,7.042,10.947,17.514,10.947,28.753,0,10.594-3.649,20.677-9.9,27.67a2.045,2.045,0,0,0,3.041,2.737c6.957-7.736,10.947-18.816,10.947-30.407C134.479,74.352,130.077,62.821,122.39,55.037Z" transform="translate(-8.777 -36.386)" fill="#f669a9"/>
    <path id="Path_802" data-name="Path 802" d="M89.969,54.61c-8,7.8-12.589,19.46-12.589,32.11,0,11.652,4.026,22.769,11.044,30.516a2.068,2.068,0,0,0,3.089-2.749C85.1,107.518,81.467,97.362,81.467,86.72c0-11.518,4.135-22.148,11.36-29.191a2.043,2.043,0,1,0-2.858-2.919Z" transform="translate(-17.734 -36.458)" fill="#f669a9"/>
  </g>
</svg>
