<svg id="note_button" data-name="note button" xmlns="http://www.w3.org/2000/svg" width="146.148" height="148.604" viewBox="0 0 146.148 148.604">
  <ellipse id="Ellipse_38" data-name="Ellipse 38" cx="40" cy="40.5" rx="40" ry="40.5" transform="translate(33.164)" fill="#ffe062"/>
  <path id="Icon_material-lightbulb-outline" data-name="Icon material-lightbulb-outline" d="M15.825,42.546a2.087,2.087,0,0,0,2.081,2.081h8.325a2.087,2.087,0,0,0,2.081-2.081V40.464H15.825ZM22.069,3a14.563,14.563,0,0,0-8.325,26.516v4.7A2.087,2.087,0,0,0,15.825,36.3H28.313a2.087,2.087,0,0,0,2.081-2.081v-4.7A14.563,14.563,0,0,0,22.069,3ZM28,26.1l-1.769,1.249v4.787H17.907V27.352L16.138,26.1A10.407,10.407,0,1,1,28,26.1Z" transform="translate(51.441 16.166)" fill="#193051"/>
  <g id="tooltip" transform="translate(-0.001 88.368)" opacity="0">
    <g id="Union_2" data-name="Union 2" fill="#fff">
      <path d="M 145.6492004394531 59.73610687255859 L 0.50090491771698 59.73610687255859 L 0.50090491771698 11.61050701141357 L 65.76492309570313 11.61050701141357 L 66.04917907714844 11.61050701141357 L 66.194580078125 11.36625194549561 L 72.64565277099609 0.5284523367881775 C 72.77679443359375 0.3084523677825928 72.9898681640625 0.2846705317497253 73.07539367675781 0.2846705317497253 C 73.16081237792969 0.2846705317497253 73.37359619140625 0.3084159791469574 73.50435638427734 0.528288722038269 L 79.95552062988281 11.36625194549561 L 80.10092163085938 11.61050701141357 L 80.38517761230469 11.61050701141357 L 145.6492004394531 11.61050701141357 L 145.6492004394531 59.73610687255859 Z" stroke="none"/>
      <path d="M 145.1492156982422 59.23611068725586 L 145.1492156982422 12.11049270629883 L 80.38519287109375 12.11049270629883 L 79.81668853759766 12.11049270629883 L 79.52589416503906 11.62197208404541 L 73.07511901855469 0.7851333022117615 L 73.07473754882813 0.7851352095603943 L 66.62422943115234 11.62197208404541 L 66.33342742919922 12.11049270629883 L 65.76493072509766 12.11049270629883 L 1.000910401344299 12.11049270629883 L 1.000910401344299 59.23611068725586 L 145.1492156982422 59.23611068725586 M 146.1492156982422 60.23611068725586 L 0.0009103540214709938 60.23611068725586 L 0.0009103540214709938 11.11049270629883 L 65.76493072509766 11.11049270629883 L 72.21601104736328 0.2726923525333405 C 72.40995788574219 -0.05265764892101288 72.74273681640625 -0.2153326421976089 73.07540130615234 -0.2153326421976089 C 73.40805816650391 -0.2153326421976089 73.74060821533203 -0.05265764892101288 73.93411254882813 0.2726923525333405 L 80.38519287109375 11.11049270629883 L 146.1492156982422 11.11049270629883 L 146.1492156982422 60.23611068725586 Z" stroke="none" fill="#d8d8d8"/>
    </g>
    <text id="تلميح" transform="translate(100.165 38.632)" fill="#b2b2b2" font-size="24" font-family="SegoeUI, Segoe UI"><tspan x="-52.102" y="0">تلميح</tspan></text>
  </g>
</svg>
