<svg xmlns="http://www.w3.org/2000/svg" width="27.545" height="26.97" viewBox="0 0 27.545 26.97">
  <g id="Group_490" data-name="Group 490" transform="translate(-1340.082 -77.868)">
    <g id="new_icons_exam_focused" transform="matrix(-0.719, 0.695, -0.695, -0.719, 1367.627, 83.356)">
      <path id="Subtraction_5" data-name="Subtraction 5" d="M23.465,7.63H9.9V6.018H23.465V7.63Zm-14.636,0H5.6V0H8.829V7.63Zm-4.3,0H3.817a3.815,3.815,0,1,1,0-7.63h.716Zm19.962-.157h0a.326.326,0,0,0,.045-.165V.356A.357.357,0,0,0,24.5.189l2.916,1.5.011.005h0l.012.006,3.195,1.64a.528.528,0,0,1,.212.2.54.54,0,0,1-.212.758l-3.2,1.655h0l-.021.009-2.92,1.515ZM27.411,2.89h0a2.53,2.53,0,0,0-.161.78,2.672,2.672,0,0,0,.176,1.074l1.788-.927-1.8-.927ZM23.465,4.943H9.9V2.835H23.465V4.943Zm0-3.18H9.9V0H23.465V1.763Z" transform="translate(0 0)" fill="#7ad1be"/>
    </g>
  </g>
</svg>
