<svg xmlns="http://www.w3.org/2000/svg" width="42.811" height="25.513" viewBox="0 0 42.811 25.513">
  <g id="new_icons_performance_focused" transform="translate(-4.12 -1.788)">
    <g id="Group_487" data-name="Group 487" transform="translate(4.12 1.788)">
      <path id="Path_598" data-name="Path 598" d="M45.905,1.789C40.945,2,37.7,5.307,35.084,7.967c-1.9,1.93-3.536,3.6-5.259,3.645-2.208.072-4.522-.792-7-1.7-2.659-.973-5.407-1.976-8.234-1.888-5.655.185-10.135,7.341-10.32,7.644a.955.955,0,0,0-.118.742.98.98,0,0,0,1.787.291c.042-.067,4.1-6.566,8.719-6.717,2.44-.084,5.027.864,7.522,1.778,2.524.927,5.141,1.879,7.7,1.812,2.516-.067,4.5-2.09,6.608-4.231,2.491-2.537,5.318-5.415,9.507-5.592a.979.979,0,0,0,.936-1.02A1,1,0,0,0,45.905,1.789Z" transform="translate(-4.12 -1.788)" fill="#7ad1be"/>
      <path id="Path_599" data-name="Path 599" d="M137.878,319.2a.978.978,0,0,0-.978.978v10.181a.978.978,0,0,0,1.955,0V320.178A.973.973,0,0,0,137.878,319.2Z" transform="translate(-131.305 -305.824)" fill="#7ad1be"/>
      <path id="Path_600" data-name="Path 600" d="M399.878,319.2a.978.978,0,0,0-.978.978v10.181a.978.978,0,0,0,1.955,0V320.178A.978.978,0,0,0,399.878,319.2Z" transform="translate(-382.264 -305.824)" fill="#7ad1be"/>
      <path id="Path_601" data-name="Path 601" d="M530.878,360.5a.978.978,0,0,0-.978.978v8.441a.978.978,0,0,0,1.955,0v-8.437A.982.982,0,0,0,530.878,360.5Z" transform="translate(-507.743 -345.384)" fill="#7ad1be"/>
      <path id="Path_602" data-name="Path 602" d="M661.778,340a.978.978,0,0,0-.978.978v9.3a.978.978,0,0,0,1.955,0v-9.3A.973.973,0,0,0,661.778,340Z" transform="translate(-633.127 -325.747)" fill="#7ad1be"/>
      <path id="Path_603" data-name="Path 603" d="M792.778,220.9a.978.978,0,0,0-.978.978V236.2a.978.978,0,0,0,1.955,0V221.878A.976.976,0,0,0,792.778,220.9Z" transform="translate(-758.607 -211.666)" fill="#7ad1be"/>
      <path id="Path_604" data-name="Path 604" d="M923.778,127.7a.978.978,0,0,0-.978.978v18.247a.978.978,0,1,0,1.955,0V128.678A.978.978,0,0,0,923.778,127.7Z" transform="translate(-884.086 -122.394)" fill="#7ad1be"/>
      <path id="Path_605" data-name="Path 605" d="M268.878,274.4a.978.978,0,0,0-.978.978v12.069a.978.978,0,1,0,1.955,0V275.378A.978.978,0,0,0,268.878,274.4Z" transform="translate(-256.784 -262.912)" fill="#7ad1be"/>
    </g>
  </g>
</svg>
