<svg xmlns="http://www.w3.org/2000/svg" xmlns:xlink="http://www.w3.org/1999/xlink" width="281.46" height="66.155" viewBox="0 0 281.46 66.155">
  <defs>
    <linearGradient id="linear-gradient" x1="0.5" x2="0.5" y2="1" gradientUnits="objectBoundingBox">
      <stop offset="0" stop-color="#85ddb6"/>
      <stop offset="1" stop-color="#6dc9cc"/>
    </linearGradient>
    <clipPath id="clip-path">
      <rect id="Rectangle_1251" data-name="Rectangle 1251" width="100.703" height="35.965" transform="translate(0 0)" fill="#fff"/>
    </clipPath>
    <linearGradient id="linear-gradient-2" y1="0.5" x2="1.013" y2="0.5" xlink:href="#linear-gradient"/>
  </defs>
  <g id="Group_452" data-name="Group 452" transform="translate(-175.048 -31.414)">
    <path id="Union_3" data-name="Union 3" d="M0,33.077C0,14.809,15.254,0,34.07,0a34.388,34.388,0,0,1,26.7,12.531H260.88a20.579,20.579,0,1,1,0,41.159H60.718A34.394,34.394,0,0,1,34.07,66.155C15.254,66.155,0,51.345,0,33.077Z" transform="translate(175.048 31.414)" fill="#dbe6ff" opacity="0.654"/>
    <g id="Group_407" data-name="Group 407" transform="translate(190.129 42.99)">
      <g id="Layer_1" data-name="Layer 1">
        <path id="Path_541" data-name="Path 541" d="M1.958,9.2A28.485,28.485,0,0,0,.411,15.148c-.042.23-.072.466-.1.7C.192,16.7.108,17.591.058,18.5c-.011.215-.021.4-.026.581a35.98,35.98,0,0,0,.085,4.432l.072.782c.044.446.1.889.165,1.332.092.654.2,1.3.336,1.918.1.528.215,1.013.34,1.48a25.369,25.369,0,0,0,.9,2.862,16.251,16.251,0,0,0,5.51,7.682c5.408,3.8,11.632,4.088,19.585.916.4-.158.8-.321,1.2-.5,1.51-.645,3.136-1.427,5.119-2.459l.544-.287a7.48,7.48,0,0,0,3.608-4.01,11.258,11.258,0,0,0,.549-5.245A22.977,22.977,0,0,0,36.8,22.748c-.313-.9-.687-1.823-1.112-2.753a49.036,49.036,0,0,0-5.3-8.858c-.186-.247-.375-.5-.569-.739-.346-.451-.717-.907-1.1-1.351-.212-.253-.434-.508-.657-.757-.072-.084-.149-.167-.225-.247a31.914,31.914,0,0,0-5.168-4.622c-.207-.143-.415-.287-.627-.43C17.594.05,13.259-.724,9.508.751A11.475,11.475,0,0,0,7.091,2.056l-.111.081c-.1.072-.215.15-.323.236A11.493,11.493,0,0,0,4.988,3.951,17.71,17.71,0,0,0,1.958,9.2" transform="translate(0.001 -0.022)" fill="url(#linear-gradient)"/>
      </g>
    </g>
    <g id="Group_449" data-name="Group 449" transform="translate(247.656 46.324)">
      <path id="Subtraction_2" data-name="Subtraction 2" d="M182.829,21.65h-3.258V0h3.258a10.825,10.825,0,0,1,7.655,18.48A10.755,10.755,0,0,1,182.829,21.65Zm-9.126,0H159.619V0H173.7V21.649Zm-19.952,0H139.667V0h14.084V21.649Zm-19.953,0H119.714V0H133.8V21.649Zm-19.952,0H99.762V0h14.083V21.649Zm-19.952,0H79.81V0H93.893V21.649Zm-19.952,0H59.857V0H73.941V21.649Zm-19.952,0H39.905V0H53.989V21.649Zm-19.952,0H19.953V0H34.037V21.649Zm-19.952,0h-3.26A10.825,10.825,0,0,1,3.171,3.171,10.755,10.755,0,0,1,10.825,0h3.26V21.649Z" transform="translate(0 8.355)" fill="#fff"/>
      <g id="Mask_Group_18" data-name="Mask Group 18" transform="translate(96.43 0)" clip-path="url(#clip-path)">
        <path id="Subtraction_3" data-name="Subtraction 3" d="M182.828,21.651h-3.257V0h3.257a10.826,10.826,0,0,1,0,21.651Zm-9.126,0H159.619V0H173.7V21.65Zm-19.952,0H139.667V0H153.75V21.65Zm-19.952,0H119.714V0H133.8V21.65Zm-19.952,0H99.762V0h14.083V21.65Zm-19.952,0H79.809V0H93.893V21.65Zm-19.952,0H59.857V0H73.941V21.65Zm-19.952,0H39.905V0H53.989V21.65Zm-19.952,0H19.953V0H34.037V21.65Zm-19.952,0H10.826A10.826,10.826,0,0,1,3.171,3.171,10.755,10.755,0,0,1,10.826,0h3.259V21.65Z" transform="translate(-96.43 8.355)" fill="url(#linear-gradient-2)"/>
      </g>
    </g>
  </g>
</svg>
